<svg xmlns="http://www.w3.org/2000/svg" width="400" height="400" viewBox="0 0 400 400">
  <defs>
    <linearGradient id="bg" x1="0%" y1="0%" x2="100%" y2="100%">
      <stop offset="0%" stop-color="#2c2c2e"/>
      <stop offset="100%" stop-color="#1c1c1e"/>
    </linearGradient>
    <linearGradient id="suit" x1="0%" y1="0%" x2="0%" y2="100%">
      <stop offset="0%" stop-color="#3a3a3c"/>
      <stop offset="100%" stop-color="#252528"/>
    </linearGradient>
    <linearGradient id="skin" x1="0%" y1="0%" x2="100%" y2="100%">
      <stop offset="0%" stop-color="#d4c4b0"/>
      <stop offset="100%" stop-color="#b8a690"/>
    </linearGradient>
    <radialGradient id="light" cx="50%" cy="35%" r="50%">
      <stop offset="0%" stop-color="#ffffff" stop-opacity="0.06"/>
      <stop offset="100%" stop-color="#ffffff" stop-opacity="0"/>
    </radialGradient>
  </defs>
  <rect width="400" height="400" fill="url(#bg)"/>
  <rect width="400" height="400" fill="url(#light)"/>
  <path d="M80 400 L80 295 Q200 255 320 295 L320 400 Z" fill="url(#suit)"/>
  <path d="M168 278 L200 318 L232 278 L220 278 L200 300 L180 278 Z" fill="#f0ede8"/>
  <path d="M192 318 L200 395 L208 318 Q200 330 192 318 Z" fill="#1a1a1c"/>
  <rect x="178" y="248" width="44" height="40" rx="8" fill="url(#skin)"/>
  <ellipse cx="200" cy="175" rx="68" ry="78" fill="url(#skin)"/>
  <path d="M132 175 Q132 95 200 88 Q268 95 268 175 Q268 145 200 130 Q132 145 132 175 Z" fill="#1a1a1c"/>
  <circle cx="200" cy="200" r="198" fill="none" stroke="#b8976a" stroke-width="1" opacity="0.35"/>
</svg>
